<?xml version="1.0" encoding="UTF-8"?>
<svg width="167px" height="54px" viewBox="0 0 167 54" version="1.1" xmlns="http://www.w3.org/2000/svg" xmlns:xlink="http://www.w3.org/1999/xlink">
    <!-- Generator: Sketch 49.1 (51147) - http://www.bohemiancoding.com/sketch -->
    <title>Blu Copy</title>
    <desc>Created with Sketch.</desc>
    <defs>
        <rect id="path-1" x="0" y="0" width="157" height="44" rx="6.18043796"></rect>
        <filter x="-5.7%" y="-13.6%" width="111.5%" height="140.9%" filterUnits="objectBoundingBox" id="filter-2">
            <feOffset dx="0" dy="3" in="SourceAlpha" result="shadowOffsetOuter1"></feOffset>
            <feGaussianBlur stdDeviation="2.5" in="shadowOffsetOuter1" result="shadowBlurOuter1"></feGaussianBlur>
            <feColorMatrix values="0 0 0 0 0   0 0 0 0 0   0 0 0 0 0  0 0 0 0.140087183 0" type="matrix" in="shadowBlurOuter1"></feColorMatrix>
        </filter>
        <path d="M11.3618421,0 C5.08685767,0 0,4.77719044 0,10.6701929 C0,14.0281062 1.65219553,17.0232979 4.23422669,18.9792164 L4.23422669,23.047619 L8.10283025,20.8941604 C9.13527611,21.1839631 10.2290475,21.3403878 11.3618421,21.3403878 C17.6368265,21.3403878 22.7236842,16.5632002 22.7236842,10.6701929 C22.7236842,4.77719044 17.6368265,0 11.3618421,0 L11.3618421,0 Z M12.4909678,14.3691965 L9.59758,11.2392723 L3.95194504,14.3691965 L10.1621452,7.68253968 L13.1261042,10.812464 L18.7011708,7.68253968 L12.4909678,14.3691965 L12.4909678,14.3691965 Z" id="path-3"></path>
    </defs>
    <g id="Page-1" stroke="none" stroke-width="1" fill="none" fill-rule="evenodd">
        <g id="Af-Landin-messager-web" transform="translate(-122.000000, -483.000000)">
            <g id="Block-#1" transform="translate(0.000000, 50.000000)">
                <g id="Group-4" transform="translate(127.000000, 239.000000)">
                    <g id="Blu-Copy" transform="translate(0.000000, 196.000000)">
                        <g id="Rectangle-Copy">
                            <use fill="black" fill-opacity="1" filter="url(#filter-2)" xlink:href="#path-1"></use>
                            <use fill="#007FFF" fill-rule="evenodd" xlink:href="#path-1"></use>
                        </g>
                        <g id="Group-Copy" transform="translate(13.427632, 11.038328)">
                            <g id="Page-1" transform="translate(0.000000, 0.485482)">
                                <mask id="mask-4" fill="white">
                                    <use xlink:href="#path-3"></use>
                                </mask>
                                <use id="Clip-2" fill="#D8D8D8" xlink:href="#path-3"></use>
                                <polygon id="Fill-1" fill="#FFFFFF" mask="url(#mask-4)" points="-2.36705044 -2.40079365 25.0907346 -2.40079365 25.0907346 25.4484127 -2.36705044 25.4484127"></polygon>
                            </g>
                            <path d="M41.9840437,16.6341463 L43.8405401,16.6341463 L43.8405401,4.19168111 L41.1857503,4.19168111 L37.5841474,13.1271247 L33.9825444,4.19168111 L31.3277547,4.19168111 L31.3277547,16.6341463 L33.184251,16.6341463 L33.184251,6.74732989 L37.1942831,16.6341463 L37.9740116,16.6341463 L41.9840437,6.74732989 L41.9840437,16.6341463 Z M45.9940758,12.1197886 C45.9940758,14.955253 47.961962,16.8579988 50.6353167,16.8579988 C52.0833839,16.8579988 53.3458014,16.3916395 54.2369196,15.5148841 L53.4571912,14.4142762 C52.7888525,15.1044879 51.7492145,15.4775754 50.8024014,15.4775754 C49.0015999,15.4775754 47.8877021,14.2090782 47.7577474,12.6794198 L54.8495634,12.6794198 L54.8495634,12.2690236 C54.8495634,9.50817675 53.1787167,7.40023286 50.486797,7.40023286 C47.8691371,7.40023286 45.9940758,9.50817675 45.9940758,12.1197886 L45.9940758,12.1197886 Z M50.486797,8.78065629 C52.3804233,8.78065629 53.1787167,10.2730059 53.2158466,11.4668857 L47.7391824,11.4668857 C47.8320072,10.2356972 48.6859955,8.78065629 50.486797,8.78065629 L50.486797,8.78065629 Z M56.1676758,15.458921 C57.077359,16.3916395 58.3954715,16.8579988 59.8992335,16.8579988 C62.2569839,16.8579988 63.5194014,15.6454647 63.5194014,14.0971519 C63.5194014,12.0265168 61.662905,11.5974663 60.1034481,11.2430332 C58.9895503,10.981872 58.0241722,10.7207108 58.0241722,9.93722727 C58.0241722,9.20970682 58.7296408,8.76200192 59.8621036,8.76200192 C60.9945663,8.76200192 61.9970744,9.22836119 62.5168934,9.86260979 L63.2594919,8.68738444 C62.4983284,7.95986398 61.3844306,7.40023286 59.8435386,7.40023286 C57.6528729,7.40023286 56.4275853,8.63142133 56.4275853,10.0678079 C56.4275853,12.0078624 58.2098218,12.4182586 59.7321488,12.7726916 C60.8831766,13.0338528 61.9042496,13.3323227 61.9042496,14.2277325 C61.9042496,14.9925617 61.2359109,15.5148841 59.9734934,15.5148841 C58.7667707,15.5148841 57.5786131,14.8992899 56.9659693,14.2277325 L56.1676758,15.458921 Z M64.8560788,15.458921 C65.765762,16.3916395 67.0838744,16.8579988 68.5876364,16.8579988 C70.9453868,16.8579988 72.2078043,15.6454647 72.2078043,14.0971519 C72.2078043,12.0265168 70.351308,11.5974663 68.791851,11.2430332 C67.6779532,10.981872 66.7125751,10.7207108 66.7125751,9.93722727 C66.7125751,9.20970682 67.4180437,8.76200192 68.5505065,8.76200192 C69.6829693,8.76200192 70.6854773,9.22836119 71.2052963,9.86260979 L71.9478948,8.68738444 C71.1867313,7.95986398 70.0728335,7.40023286 68.5319415,7.40023286 C66.3412758,7.40023286 65.1159882,8.63142133 65.1159882,10.0678079 C65.1159882,12.0078624 66.8982247,12.4182586 68.4205517,12.7726916 C69.5715795,13.0338528 70.5926525,13.3323227 70.5926525,14.2277325 C70.5926525,14.9925617 69.9243138,15.5148841 68.6618963,15.5148841 C67.4551736,15.5148841 66.267016,14.8992899 65.6543722,14.2277325 L64.8560788,15.458921 Z M79.8565693,16.6341463 L81.527416,16.6341463 L81.527416,10.5528215 C81.527416,8.25833391 79.8751342,7.40023286 77.9258131,7.40023286 C76.4777459,7.40023286 75.2524583,7.8852465 74.2499503,8.87392815 L74.9739839,10.0304991 C75.7722773,9.22836119 76.6448306,8.83661941 77.6659036,8.83661941 C78.9468861,8.83661941 79.8565693,9.50817675 79.8565693,10.627439 L79.8565693,12.1197886 C79.1696656,11.3176507 78.1300277,10.9259089 76.923305,10.9259089 C75.419543,10.9259089 73.8043912,11.8213187 73.8043912,13.8732995 C73.8043912,15.8506628 75.438108,16.8579988 76.923305,16.8579988 C78.1300277,16.8579988 79.1511007,16.4289483 79.8565693,15.6454647 L79.8565693,16.6341463 Z M79.8565693,14.6567831 C79.3553153,15.3283404 78.482762,15.6827734 77.5545138,15.6827734 C76.3477912,15.6827734 75.4938028,14.955253 75.4938028,13.8919539 C75.4938028,12.8286547 76.3477912,12.1011343 77.5545138,12.1011343 C78.482762,12.1011343 79.3553153,12.4555673 79.8565693,13.1271247 L79.8565693,14.6567831 Z M84.1265109,18.9472883 C85.2032788,19.9732787 86.2986116,20.290403 87.8023736,20.290403 C90.0116043,20.290403 92.2579649,19.3763388 92.2579649,16.2797133 L92.2579649,7.62408531 L90.5871182,7.62408531 L90.5871182,8.92989126 C89.8630846,7.95986398 88.8048817,7.40023286 87.635289,7.40023286 C85.3146685,7.40023286 83.6438218,9.15374371 83.6438218,12.0451712 C83.6438218,14.9925617 85.3146685,16.7087638 87.635289,16.7087638 C88.8420116,16.7087638 89.9002145,16.0558609 90.5871182,15.1604511 L90.5871182,16.3356764 C90.5871182,18.2384222 89.1947459,18.9099796 87.8023736,18.9099796 C86.5770861,18.9099796 85.6674028,18.5742009 84.9248043,17.7160998 L84.1265109,18.9472883 Z M90.5871182,13.8732995 C90.1229941,14.6008199 89.1019211,15.2164142 88.0994131,15.2164142 C86.4285663,15.2164142 85.3889284,13.9106082 85.3889284,12.0451712 C85.3889284,10.1983885 86.4285663,8.89258252 88.0994131,8.89258252 C89.1019211,8.89258252 90.1229941,9.48952238 90.5871182,10.2170428 L90.5871182,13.8732995 Z M94.3558058,12.1197886 C94.3558058,14.955253 96.3236919,16.8579988 98.9970466,16.8579988 C100.445114,16.8579988 101.707531,16.3916395 102.59865,15.5148841 L101.818921,14.4142762 C101.150582,15.1044879 100.110944,15.4775754 99.1641313,15.4775754 C97.3633299,15.4775754 96.249432,14.2090782 96.1194773,12.6794198 L103.211293,12.6794198 L103.211293,12.2690236 C103.211293,9.50817675 101.540447,7.40023286 98.8485269,7.40023286 C96.2308671,7.40023286 94.3558058,9.50817675 94.3558058,12.1197886 L94.3558058,12.1197886 Z M98.8485269,8.78065629 C100.742153,8.78065629 101.540447,10.2730059 101.577577,11.4668857 L96.1009123,11.4668857 C96.1937371,10.2356972 97.0477255,8.78065629 98.8485269,8.78065629 L98.8485269,8.78065629 Z M110.136025,11.7653556 C110.136025,14.8246724 111.881131,16.8579988 115.352779,16.8579988 C118.824428,16.8579988 120.550969,14.8433268 120.550969,11.7467012 L120.550969,4.19168111 L118.675908,4.19168111 L118.675908,11.7093925 C118.675908,13.8359907 117.52488,15.1977598 115.352779,15.1977598 C113.180679,15.1977598 112.011086,13.8359907 112.011086,11.7093925 L112.011086,4.19168111 L110.136025,4.19168111 L110.136025,11.7653556 Z M122.50029,15.458921 C123.409974,16.3916395 124.728086,16.8579988 126.231848,16.8579988 C128.589598,16.8579988 129.852016,15.6454647 129.852016,14.0971519 C129.852016,12.0265168 127.99552,11.5974663 126.436063,11.2430332 C125.322165,10.981872 124.356787,10.7207108 124.356787,9.93722727 C124.356787,9.20970682 125.062255,8.76200192 126.194718,8.76200192 C127.327181,8.76200192 128.329689,9.22836119 128.849508,9.86260979 L129.592106,8.68738444 C128.830943,7.95986398 127.717045,7.40023286 126.176153,7.40023286 C123.985488,7.40023286 122.7602,8.63142133 122.7602,10.0678079 C122.7602,12.0078624 124.542436,12.4182586 126.064763,12.7726916 C127.215791,13.0338528 128.236864,13.3323227 128.236864,14.2277325 C128.236864,14.9925617 127.568525,15.5148841 126.306108,15.5148841 C125.099385,15.5148841 123.911228,14.8992899 123.298584,14.2277325 L122.50029,15.458921 Z" id="Message-Us" fill="#FFFFFF"></path>
                        </g>
                    </g>
                </g>
            </g>
        </g>
    </g>
</svg>