<?xml version="1.0" encoding="UTF-8"?>
<svg width="129px" height="42px" viewBox="0 0 129 42" version="1.1" xmlns="http://www.w3.org/2000/svg" xmlns:xlink="http://www.w3.org/1999/xlink">
    <!-- Generator: Sketch 49.1 (51147) - http://www.bohemiancoding.com/sketch -->
    <title>Blu Copy</title>
    <desc>Created with Sketch.</desc>
    <defs>
        <rect id="path-1" x="0" y="0" width="121" height="34" rx="4.77579297"></rect>
        <filter x="-5.8%" y="-14.7%" width="111.6%" height="141.2%" filterUnits="objectBoundingBox" id="filter-2">
            <feOffset dx="0" dy="2" in="SourceAlpha" result="shadowOffsetOuter1"></feOffset>
            <feGaussianBlur stdDeviation="2" in="shadowOffsetOuter1" result="shadowBlurOuter1"></feGaussianBlur>
            <feColorMatrix values="0 0 0 0 0   0 0 0 0 0   0 0 0 0 0  0 0 0 0.140087183 0" type="matrix" in="shadowBlurOuter1"></feColorMatrix>
        </filter>
        <path d="M8.75657895,0 C3.92044445,0 0,3.69146534 0,8.24514909 C0,10.8399002 1.27334814,13.1543666 3.26332121,14.6657581 L3.26332121,17.8095238 L6.24485644,16.1454876 C7.04056312,16.369426 7.88353343,16.4902997 8.75657895,16.4902997 C13.5927134,16.4902997 17.5131579,12.7988365 17.5131579,8.24514909 C17.5131579,3.69146534 13.5927134,0 8.75657895,0 L8.75657895,0 Z M9.62679682,11.1034701 L7.39686102,8.6848922 L3.04576656,11.1034701 L7.83197178,5.93650794 L10.1162969,8.35508579 L14.4130042,5.93650794 L9.62679682,11.1034701 L9.62679682,11.1034701 Z" id="path-3"></path>
    </defs>
    <g id="Page-1" stroke="none" stroke-width="1" fill="none" fill-rule="evenodd">
        <g id="Af-Landin-messager-mobile" transform="translate(-11.000000, -241.000000)">
            <g id="Block-#1" transform="translate(0.000000, 80.000000)">
                <g id="Group-4" transform="translate(15.000000, 40.000000)">
                    <g id="Blu-Copy" transform="translate(0.000000, 123.000000)">
                        <g id="Rectangle-Copy">
                            <use fill="black" fill-opacity="1" filter="url(#filter-2)" xlink:href="#path-1"></use>
                            <use fill="#007FFF" fill-rule="evenodd" xlink:href="#path-1"></use>
                        </g>
                        <g id="Group-Copy" transform="translate(10.348684, 8.529617)">
                            <g id="Page-1" transform="translate(0.000000, 0.375145)">
                                <mask id="mask-4" fill="white">
                                    <use xlink:href="#path-3"></use>
                                </mask>
                                <use id="Clip-2" fill="#D8D8D8" xlink:href="#path-3"></use>
                                <polygon id="Fill-1" fill="#FFFFFF" mask="url(#mask-4)" points="-1.82428728 -1.85515873 19.3374452 -1.85515873 19.3374452 19.6646825 -1.82428728 19.6646825"></polygon>
                            </g>
                            <path d="M32.3571292,12.8536585 L33.7879322,12.8536585 L33.7879322,3.23902631 L31.741884,3.23902631 L28.9661263,10.1436872 L26.1903687,3.23902631 L24.1443205,3.23902631 L24.1443205,12.8536585 L25.5751234,12.8536585 L25.5751234,5.21384583 L28.6656577,12.8536585 L29.2665949,12.8536585 L32.3571292,5.21384583 L32.3571292,12.8536585 Z M35.4476635,9.36529122 C35.4476635,11.5563318 36.9643146,13.0266354 39.0246708,13.0266354 C40.1406971,13.0266354 41.1136431,12.6662669 41.8004285,11.9887741 L41.1994913,11.1383044 C40.6844022,11.6716498 39.8831526,11.9599446 39.1534431,11.9599446 C37.7655643,11.9599446 36.9070825,10.9797422 36.8069263,9.79773345 L42.2725935,9.79773345 L42.2725935,9.48060915 C42.2725935,7.34722749 40.9848708,5.71836176 38.9102066,5.71836176 C36.8927745,5.71836176 35.4476635,7.34722749 35.4476635,9.36529122 L35.4476635,9.36529122 Z M38.9102066,6.78505259 C40.3696256,6.78505259 40.9848708,7.93823187 41.0134869,8.86077529 L36.7926183,8.86077529 C36.8641584,7.90940239 37.5223278,6.78505259 38.9102066,6.78505259 L38.9102066,6.78505259 Z M43.2884635,11.9455299 C43.989557,12.6662669 45.005427,13.0266354 46.1643774,13.0266354 C47.9814971,13.0266354 48.9544431,12.0896773 48.9544431,10.8932538 C48.9544431,9.29321752 47.5236402,8.96167848 46.3217657,8.6877984 C45.463284,8.48599202 44.7192665,8.28418565 44.7192665,7.67876653 C44.7192665,7.11659163 45.2629716,6.77063785 46.1357614,6.77063785 C47.0085511,6.77063785 47.7811847,7.13100637 48.1818095,7.62110757 L48.7541307,6.71297889 C48.1675015,6.15080399 47.3090197,5.71836176 46.1214533,5.71836176 C44.4331059,5.71836176 43.488776,6.66973466 43.488776,7.77966972 C43.488776,9.27880278 44.8623468,9.59592708 46.0356051,9.86980716 C46.922703,10.0716135 47.7096446,10.3022494 47.7096446,10.994157 C47.7096446,11.5851613 47.1945555,11.9887741 46.2216095,11.9887741 C45.2915876,11.9887741 44.3758738,11.5130876 43.9037088,10.994157 L43.2884635,11.9455299 Z M49.9846212,11.9455299 C50.6857146,12.6662669 51.7015847,13.0266354 52.8605351,13.0266354 C54.6776548,13.0266354 55.6506008,12.0896773 55.6506008,10.8932538 C55.6506008,9.29321752 54.2197978,8.96167848 53.0179234,8.6877984 C52.1594416,8.48599202 51.4154241,8.28418565 51.4154241,7.67876653 C51.4154241,7.11659163 51.9591292,6.77063785 52.831919,6.77063785 C53.7047088,6.77063785 54.4773424,7.13100637 54.8779672,7.62110757 L55.4502884,6.71297889 C54.8636592,6.15080399 54.0051774,5.71836176 52.817611,5.71836176 C51.1292635,5.71836176 50.1849336,6.66973466 50.1849336,7.77966972 C50.1849336,9.27880278 51.5585044,9.59592708 52.7317628,9.86980716 C53.6188606,10.0716135 54.4058022,10.3022494 54.4058022,10.994157 C54.4058022,11.5851613 53.8907132,11.9887741 52.9177672,11.9887741 C51.9877453,11.9887741 51.0720314,11.5130876 50.5998665,10.994157 L49.9846212,11.9455299 Z M61.5455088,12.8536585 L62.8332314,12.8536585 L62.8332314,8.15445298 C62.8332314,6.38143984 61.5598168,5.71836176 60.0574738,5.71836176 C58.9414475,5.71836176 57.9971176,6.09314502 57.224484,6.8571263 L57.7824971,7.75084024 C58.3977424,7.13100637 59.0702197,6.82829681 59.8571614,6.82829681 C60.8444154,6.82829681 61.5455088,7.34722749 61.5455088,8.21211195 L61.5455088,9.36529122 C61.0161117,8.74545736 60.2148621,8.4427478 59.2848402,8.4427478 C58.1258898,8.4427478 56.8810913,9.13465537 56.8810913,10.7202769 C56.8810913,12.2482394 58.1401978,13.0266354 59.2848402,13.0266354 C60.2148621,13.0266354 61.0018037,12.6950964 61.5455088,12.0896773 L61.5455088,12.8536585 Z M61.5455088,11.325696 C61.159192,11.8446267 60.4867146,12.1185067 59.7713132,12.1185067 C58.8412913,12.1185067 58.1831219,11.5563318 58.1831219,10.7346916 C58.1831219,9.91305138 58.8412913,9.35087648 59.7713132,9.35087648 C60.4867146,9.35087648 61.159192,9.62475656 61.5455088,10.1436872 L61.5455088,11.325696 Z M64.8363555,14.6410864 C65.6662212,15.4338972 66.5103949,15.6789478 67.6693453,15.6789478 C69.3720008,15.6789478 71.1032723,14.9726255 71.1032723,12.5797785 L71.1032723,5.89133865 L69.8155497,5.89133865 L69.8155497,6.90037052 C69.2575365,6.15080399 68.4419789,5.71836176 67.540573,5.71836176 C65.7520694,5.71836176 64.4643468,7.07334741 64.4643468,9.30763226 C64.4643468,11.5851613 65.7520694,12.9113175 67.540573,12.9113175 C68.4705949,12.9113175 69.2861526,12.4068016 69.8155497,11.714894 L69.8155497,12.6230227 C69.8155497,14.0933263 68.7424475,14.6122569 67.6693453,14.6122569 C66.7250154,14.6122569 66.0239219,14.3527916 65.4516008,13.6897135 L64.8363555,14.6410864 Z M69.8155497,10.7202769 C69.4578489,11.2824518 68.6709073,11.7581382 67.8982738,11.7581382 C66.6105511,11.7581382 65.8093015,10.7491064 65.8093015,9.30763226 C65.8093015,7.8805729 66.6105511,6.87154104 67.8982738,6.87154104 C68.6709073,6.87154104 69.4578489,7.33281275 69.8155497,7.89498764 L69.8155497,10.7202769 Z M72.7200796,9.36529122 C72.7200796,11.5563318 74.2367307,13.0266354 76.2970869,13.0266354 C77.4131132,13.0266354 78.3860592,12.6662669 79.0728446,11.9887741 L78.4719073,11.1383044 C77.9568183,11.6716498 77.1555687,11.9599446 76.4258592,11.9599446 C75.0379803,11.9599446 74.1794986,10.9797422 74.0793424,9.79773345 L79.5450095,9.79773345 L79.5450095,9.48060915 C79.5450095,7.34722749 78.2572869,5.71836176 76.1826227,5.71836176 C74.1651905,5.71836176 72.7200796,7.34722749 72.7200796,9.36529122 L72.7200796,9.36529122 Z M76.1826227,6.78505259 C77.6420416,6.78505259 78.2572869,7.93823187 78.285903,8.86077529 L74.0650343,8.86077529 C74.1365745,7.90940239 74.7947438,6.78505259 76.1826227,6.78505259 L76.1826227,6.78505259 Z M84.8819044,9.09141114 C84.8819044,11.4554287 86.2268592,13.0266354 88.9024606,13.0266354 C91.5780621,13.0266354 92.9087088,11.4698434 92.9087088,9.0769964 L92.9087088,3.23902631 L91.4635978,3.23902631 L91.4635978,9.04816692 C91.4635978,10.6914474 90.5765,11.7437235 88.9024606,11.7437235 C87.2284212,11.7437235 86.3270154,10.6914474 86.3270154,9.04816692 L86.3270154,3.23902631 L84.8819044,3.23902631 L84.8819044,9.09141114 Z M94.4110519,11.9455299 C95.1121453,12.6662669 96.1280154,13.0266354 97.2869657,13.0266354 C99.1040854,13.0266354 100.077031,12.0896773 100.077031,10.8932538 C100.077031,9.29321752 98.6462285,8.96167848 97.4443541,8.6877984 C96.5858723,8.48599202 95.8418548,8.28418565 95.8418548,7.67876653 C95.8418548,7.11659163 96.3855599,6.77063785 97.2583497,6.77063785 C98.1311395,6.77063785 98.903773,7.13100637 99.3043978,7.62110757 L99.876719,6.71297889 C99.2900898,6.15080399 98.4316081,5.71836176 97.2440416,5.71836176 C95.5556942,5.71836176 94.6113643,6.66973466 94.6113643,7.77966972 C94.6113643,9.27880278 95.9849351,9.59592708 97.1581935,9.86980716 C98.0452913,10.0716135 98.8322329,10.3022494 98.8322329,10.994157 C98.8322329,11.5851613 98.3171438,11.9887741 97.3441978,11.9887741 C96.414176,11.9887741 95.4984621,11.5130876 95.0262971,10.994157 L94.4110519,11.9455299 Z" id="Message-Us" fill="#FFFFFF"></path>
                        </g>
                    </g>
                </g>
            </g>
        </g>
    </g>
</svg>