<?xml version="1.0" encoding="UTF-8"?>
<svg width="16px" height="16px" viewBox="0 0 16 16" version="1.1" xmlns="http://www.w3.org/2000/svg" xmlns:xlink="http://www.w3.org/1999/xlink">
    <!-- Generator: Sketch 49.3 (51167) - http://www.bohemiancoding.com/sketch -->
    <title>Line 3</title>
    <desc>Created with Sketch.</desc>
    <defs></defs>
    <g id="Page-1" stroke="none" stroke-width="1" fill="none" fill-rule="evenodd">
        <g id="Share-your-story-popup-error" transform="translate(-935.000000, -94.000000)" fill="#007FFF" fill-rule="nonzero">
            <g id="Group-12" transform="translate(225.000000, 70.000000)">
                <path d="M719.414214,32 L725.707107,38.2928932 C726.097631,38.6834175 726.097631,39.3165825 725.707107,39.7071068 C725.316582,40.0976311 724.683418,40.0976311 724.292893,39.7071068 L718,33.4142136 L711.707107,39.7071068 C711.316582,40.0976311 710.683418,40.0976311 710.292893,39.7071068 C709.902369,39.3165825 709.902369,38.6834175 710.292893,38.2928932 L716.585786,32 L710.292893,25.7071068 C709.902369,25.3165825 709.902369,24.6834175 710.292893,24.2928932 C710.683418,23.9023689 711.316582,23.9023689 711.707107,24.2928932 L718,30.5857864 L724.292893,24.2928932 C724.683418,23.9023689 725.316582,23.9023689 725.707107,24.2928932 C726.097631,24.6834175 726.097631,25.3165825 725.707107,25.7071068 L719.414214,32 Z" id="Line-3"></path>
            </g>
        </g>
    </g>
</svg>