<?xml version="1.0" encoding="UTF-8"?>
<svg width="145px" height="114px" viewBox="0 0 145 114" version="1.1" xmlns="http://www.w3.org/2000/svg" xmlns:xlink="http://www.w3.org/1999/xlink">
    <!-- Generator: Sketch 49.3 (51167) - http://www.bohemiancoding.com/sketch -->
    <title>Group 7</title>
    <desc>Created with Sketch.</desc>
    <defs></defs>
    <g id="Page-1" stroke="none" stroke-width="1" fill="none" fill-rule="evenodd">
        <g id="Stories" transform="translate(-285.000000, -1345.000000)">
            <g id="Group-6" transform="translate(128.000000, 824.000000)">
                <g id="Group-11" transform="translate(0.000000, 92.000000)">
                    <g id="Group-3" transform="translate(0.000000, 325.000000)">
                        <g id="Group-10">
                            <g id="Group-8" transform="translate(144.000000, 106.000000)">
                                <g id="Group-7" transform="translate(13.000000, 0.000000)">
                                    <g id="Group-Copy" transform="translate(39.000000, 0.000000)">
                                        <path d="M17.5050926,53.4949081 L3.3629571,67.6370438" id="Line" stroke="#1481FA" stroke-width="4" stroke-linecap="square"></path>
                                        <path d="M1.95306396,69.0470581 C0.692260742,70.3079224 0,71.3848664 0,73 C0,75.7614237 2.23857625,78 5,78" id="Oval-7" stroke="#1481FA" stroke-width="4"></path>
                                        <path d="M36,78 L36,78 C38.7614237,78 41,75.7614237 41,73" id="Oval-7" stroke="#1481FA" stroke-width="4"></path>
                                        <path d="M43,46.2508619 L43,47 L43,71 L43,73 L39,73 L39,71 L39,47 L39,46.2508619 C34.1419289,43.86546 31.4008878,42.2226235 29.0490178,40.0873587 C25.725072,37.0695454 24,33.4881699 24,29 C24,23.6456481 26.4966709,19.851201 30.9919033,17.8066327 C31.1426094,17.738087 31.2973674,17.6897986 31.4531168,17.6606209 C32.0287164,17.2449489 32.7357528,17 33.5,17 C35.4329966,17 37,18.5670034 37,20.5 C37,22.4329966 35.4329966,24 33.5,24 C32.3620009,24 31.3508531,23.4568853 30.7116203,22.6157197 C28.9113869,24.0567315 28,26.1239975 28,29 C28,35.0419638 31.4351697,38.1607573 41.869621,43.198956 L40.130379,43.198956 C50.5648303,38.1607573 54,35.0419638 54,29 C54,26.1234302 53.088347,24.0565821 51.2883376,22.6157751 C50.6491025,23.4569092 49.6379741,24 48.5,24 C46.5670034,24 45,22.4329966 45,20.5 C45,18.5670034 46.5670034,17 48.5,17 C49.2763986,17 49.9937526,17.2528001 50.5742391,17.6805774 C50.7419415,17.7096093 50.9086661,17.7606879 51.0705869,17.835227 C55.5273543,19.8868694 58,23.6717737 58,29 C58,33.4881699 56.274928,37.0695454 52.9509822,40.0873587 C50.5991122,42.2226235 47.8580711,43.86546 43,46.2508619 Z" id="Combined-Shape" fill="#1481FA" fill-rule="nonzero"></path>
                                        <path d="M6,78 L34,78" id="Line" stroke="#1481FA" stroke-width="4" stroke-linecap="square"></path>
                                        <circle id="Oval-6" stroke="#1481FA" stroke-width="4" cx="41" cy="30" r="30"></circle>
                                    </g>
                                    <text id="AbleFinder" font-family="OpenSans-Regular, Open Sans" font-size="18" font-weight="normal" letter-spacing="6">
                                        <tspan x="0.280273438" y="111" fill="#363A3E">Able</tspan>
                                        <tspan x="61.3525391" y="111" fill="#1481FA">Finde</tspan>
                                        <tspan x="137.37207" y="111" fill="#1481FA">r</tspan>
                                    </text>
                                </g>
                            </g>
                        </g>
                    </g>
                </g>
            </g>
        </g>
    </g>
</svg>