<?xml version="1.0" encoding="UTF-8"?>
<svg width="18px" height="18px" viewBox="0 0 18 18" version="1.1" xmlns="http://www.w3.org/2000/svg" xmlns:xlink="http://www.w3.org/1999/xlink">
    <!-- Generator: Sketch 49.1 (51147) - http://www.bohemiancoding.com/sketch -->
    <title>linkedin</title>
    <desc>Created with Sketch.</desc>
    <defs></defs>
    <g id="Page-1" stroke="none" stroke-width="1" fill="none" fill-rule="evenodd">
        <g id="Af-Landin-messager-web" transform="translate(-772.000000, -4528.000000)">
            <g id="Footer" transform="translate(0.000000, 4517.000000)">
                <g id="Group-14" transform="translate(720.000000, 3.000000)">
                    <g id="linkedin" transform="translate(44.000000, 0.000000)">
                        <rect id="Rectangle" x="0" y="0" width="34" height="34"></rect>
                        <path d="M23.33525,23.339 L20.66975,23.339 L20.66975,19.16225 C20.66975,18.16625 20.6495,16.8845 19.28075,16.8845 C17.891,16.8845 17.67875,17.96825 17.67875,19.08875 L17.67875,23.339 L15.01325,23.339 L15.01325,14.75 L17.57375,14.75 L17.57375,15.92075 L17.60825,15.92075 C17.966,15.24575 18.836,14.53325 20.13575,14.53325 C22.8365,14.53325 23.336,16.31075 23.336,18.6245 L23.336,23.339 L23.33525,23.339 Z M12.00275,13.57475 C11.14475,13.57475 10.4555,12.88025 10.4555,12.026 C10.4555,11.1725 11.1455,10.47875 12.00275,10.47875 C12.85775,10.47875 13.55075,11.1725 13.55075,12.026 C13.55075,12.88025 12.857,13.57475 12.00275,13.57475 Z M13.33925,23.339 L10.66625,23.339 L10.66625,14.75 L13.33925,14.75 L13.33925,23.339 Z M24.66875,8 L9.32825,8 C8.594,8 8,8.5805 8,9.29675 L8,24.70325 C8,25.42025 8.594,26 9.32825,26 L24.6665,26 C25.4,26 26,25.42025 26,24.70325 L26,9.29675 C26,8.5805 25.4,8 24.6665,8 L24.66875,8 Z" id="Shape" fill="#737373" fill-rule="nonzero"></path>
                    </g>
                </g>
            </g>
        </g>
    </g>
</svg>